<?xml version="1.0" encoding="UTF-8"?>
<!DOCTYPE svg PUBLIC "-//W3C//DTD SVG 1.1//EN" "http://www.w3.org/Graphics/SVG/1.1/DTD/svg11.dtd">
<svg xmlns="http://www.w3.org/2000/svg" version="1.1" width="512px" height="512px" style="shape-rendering:geometricPrecision; text-rendering:geometricPrecision; image-rendering:optimizeQuality; fill-rule:evenodd; clip-rule:evenodd" xmlns:xlink="http://www.w3.org/1999/xlink">
<g><path style="opacity:0.989" fill="#020101" d="M 131.5,-0.5 C 248.5,-0.5 365.5,-0.5 482.5,-0.5C 497.167,4.16667 506.833,13.8333 511.5,28.5C 511.5,87.5 511.5,146.5 511.5,205.5C 507.015,220.15 497.349,229.65 482.5,234C 472.172,234.5 461.839,234.666 451.5,234.5C 451.667,307.167 451.5,379.834 451,452.5C 447.432,465.736 439.265,474.903 426.5,480C 402.216,481.294 377.883,481.961 353.5,482C 335.99,497.755 315.657,507.589 292.5,511.5C 282.833,511.5 273.167,511.5 263.5,511.5C 240.5,507.833 220.5,498 203.5,482C 175.118,481.967 146.785,481.3 118.5,480C 102.093,472.919 93.5935,460.419 93,442.5C 78.0516,448.232 62.5516,451.232 46.5,451.5C 39.1663,450.832 31.833,449.999 24.5,449C 21.6011,447.373 20.1011,444.873 20,441.5C 16.2077,411.629 21.7077,383.629 36.5,357.5C 39.7575,354.515 43.4242,353.848 47.5,355.5C 48.7102,357.552 49.7102,359.718 50.5,362C 47.4776,369.213 44.3109,376.38 41,383.5C 36.106,396.759 34.106,410.425 35,424.5C 47.0353,412.632 58.8687,400.632 70.5,388.5C 78.965,380.536 87.2983,372.369 95.5,364C 101.789,361.647 105.789,363.814 107.5,370.5C 107.281,371.938 106.781,373.271 106,374.5C 97.2977,383.035 88.7977,391.702 80.5,400.5C 68.7015,411.798 57.0349,423.298 45.5,435C 67.0118,435.662 87.0118,430.496 105.5,419.5C 131.763,401.646 146.263,376.646 149,344.5C 149.667,337.167 149.667,329.833 149,322.5C 119.483,318.14 92.6499,324.973 68.5,343C 65.5929,343.718 62.9262,343.218 60.5,341.5C 60.1667,341.5 59.8333,341.5 59.5,341.5C 57.9774,337.512 58.3108,333.679 60.5,330C 70.1083,322.36 80.7749,316.527 92.5,312.5C 93.6658,301.515 93.8324,290.515 93,279.5C 86.9675,270.771 81.9675,261.438 78,251.5C 61.7372,258.411 44.9038,260.244 27.5,257C 18.8215,254.322 12.6549,248.822 9,240.5C 4.49206,231.145 1.3254,221.478 -0.5,211.5C -0.5,202.5 -0.5,193.5 -0.5,184.5C 10.8148,134.531 42.1481,107.864 93.5,104.5C 93.3334,82.4975 93.5,60.4975 94,38.5C 98.902,18.0996 111.402,5.09958 131.5,-0.5 Z"/></g>
<g><path style="opacity:1" fill="#fef0ce" d="M 182.5,14.5 C 182.278,33.1832 182.611,51.8498 183.5,70.5C 165.472,75.5635 159.305,86.8968 165,104.5C 172.077,113.289 181.244,117.622 192.5,117.5C 201.149,156.119 215.482,192.453 235.5,226.5C 227.92,227.578 225.754,231.578 229,238.5C 229.903,239.701 231.069,240.535 232.5,241C 236.821,241.499 241.154,241.666 245.5,241.5C 250.75,250.089 256.417,258.423 262.5,266.5C 252.494,266.334 242.494,266.5 232.5,267C 227.374,269.553 226.207,273.386 229,278.5C 229.903,279.701 231.069,280.535 232.5,281C 246.829,281.5 261.163,281.667 275.5,281.5C 282.798,290.133 290.465,298.467 298.5,306.5C 276.497,306.333 254.497,306.5 232.5,307C 226.647,310.451 225.981,314.785 230.5,320C 259.078,321.483 287.745,321.983 316.5,321.5C 351.828,350.836 391.828,371.836 436.5,384.5C 436.667,406.169 436.5,427.836 436,449.5C 433.167,457.667 427.667,463.167 419.5,466C 401.5,466.667 383.5,466.667 365.5,466C 374.855,451.57 373.189,438.57 360.5,427C 308.141,406.88 255.474,387.546 202.5,369C 180.024,369.315 169.357,380.815 170.5,403.5C 170.773,426.439 177.439,447.273 190.5,466C 168.833,466.667 147.167,466.667 125.5,466C 111.579,459.993 106.246,449.493 109.5,434.5C 143.828,412.882 161.994,381.548 164,340.5C 164.667,333.5 164.667,326.5 164,319.5C 161.556,311.863 156.389,307.363 148.5,306C 135.034,304.95 121.701,305.783 108.5,308.5C 108.5,301.167 108.5,293.833 108.5,286.5C 113.675,286.728 118.675,285.895 123.5,284C 135.6,278.205 146.767,271.038 157,262.5C 164.194,251.454 164.194,240.454 157,229.5C 152.833,224 148.667,218.5 144.5,213C 156.597,203.238 166.097,191.404 173,177.5C 176.831,167.814 176.164,158.48 171,149.5C 156.598,127.214 136.431,113.214 110.5,107.5C 109.511,85.2418 109.178,62.9085 109.5,40.5C 112.318,28.8417 119.318,20.675 130.5,16C 147.777,14.5565 165.111,14.0565 182.5,14.5 Z"/></g>
<g><path style="opacity:1" fill="#fef7e5" d="M 182.5,14.5 C 269.501,14.3333 356.501,14.5 443.5,15C 440.65,19.5325 438.484,24.3658 437,29.5C 436.333,56.8333 436.333,84.1667 437,111.5C 438.159,114.493 440.325,116.16 443.5,116.5C 443.5,123.167 443.5,129.833 443.5,136.5C 440.737,136.744 438.571,138.077 437,140.5C 436.5,221.833 436.333,303.166 436.5,384.5C 391.828,371.836 351.828,350.836 316.5,321.5C 333.17,321.667 349.837,321.5 366.5,321C 370.496,320.164 372.496,317.664 372.5,313.5C 372.152,311.303 371.152,309.47 369.5,308C 345.924,306.52 322.257,306.02 298.5,306.5C 290.465,298.467 282.798,290.133 275.5,281.5C 305.835,281.667 336.168,281.5 366.5,281C 371.911,278.775 373.411,274.942 371,269.5C 370.097,268.299 368.931,267.465 367.5,267C 332.502,266.5 297.502,266.333 262.5,266.5C 256.417,258.423 250.75,250.089 245.5,241.5C 285.835,241.667 326.168,241.5 366.5,241C 371.911,238.775 373.411,234.942 371,229.5C 370.097,228.299 368.931,227.465 367.5,227C 323.501,226.5 279.501,226.333 235.5,226.5C 215.482,192.453 201.149,156.119 192.5,117.5C 206.21,117.262 215.71,110.929 221,98.5C 222.559,86.3867 217.725,77.8867 206.5,73C 199.059,69.7777 191.392,68.9443 183.5,70.5C 182.611,51.8498 182.278,33.1832 182.5,14.5 Z"/></g>
<g><path style="opacity:1" fill="#fecd70" d="M 443.5,136.5 C 443.5,129.833 443.5,123.167 443.5,116.5C 447.637,116.518 450.137,114.518 451,110.5C 451.333,84.1667 451.667,57.8333 452,31.5C 458.859,15.2126 470.359,10.7126 486.5,18C 491.252,21.4136 494.419,25.9136 496,31.5C 496.667,88.5 496.667,145.5 496,202.5C 493.167,210.667 487.667,216.167 479.5,219C 470.173,219.5 460.839,219.666 451.5,219.5C 451.667,193.165 451.5,166.831 451,140.5C 449.117,137.976 446.617,136.642 443.5,136.5 Z"/></g>
<g><path style="opacity:1" fill="#080807" d="M 205.5,39.5 C 220.287,38.2096 229.287,44.7096 232.5,59C 231.657,66.7411 227.657,69.4078 220.5,67C 218.264,63.8546 216.764,60.3546 216,56.5C 212.796,53.887 209.63,53.887 206.5,56.5C 205.259,60.1975 203.593,63.6975 201.5,67C 194.694,69.4031 190.694,66.9031 189.5,59.5C 191.051,49.695 196.385,43.0283 205.5,39.5 Z"/></g>
<g><path style="opacity:1" fill="#080808" d="M 328.5,39.5 C 343.287,38.2096 352.287,44.7096 355.5,59C 354.657,66.7411 350.657,69.4078 343.5,67C 341.264,63.8546 339.764,60.3546 339,56.5C 331.465,53.3244 327.465,55.991 327,64.5C 319.532,70.8987 314.699,69.232 312.5,59.5C 314.051,49.695 319.385,43.0283 328.5,39.5 Z"/></g>
<g><path style="opacity:1" fill="#c9bea3" d="M 109.5,40.5 C 109.178,62.9085 109.511,85.2418 110.5,107.5C 109.168,96.6872 108.501,85.5206 108.5,74C 108.5,62.6616 108.833,51.4949 109.5,40.5 Z"/></g>
<g><path style="opacity:1" fill="#050505" d="M 240.5,65.5 C 245.439,64.3519 248.939,66.0186 251,70.5C 252.148,79.5752 256.481,81.5752 264,76.5C 265,73.5 266,70.5 267,67.5C 275.955,63.423 280.622,66.423 281,76.5C 285,80.5 289,80.5 293,76.5C 293.727,65.4055 298.727,62.7388 308,68.5C 308.698,86.8009 299.865,95.3009 281.5,94C 278.221,93.0272 275.221,91.5272 272.5,89.5C 258.238,98.2665 246.738,95.5998 238,81.5C 236.675,77.5715 236.342,73.5715 237,69.5C 237.69,67.6498 238.856,66.3164 240.5,65.5 Z"/></g>
<g><path style="opacity:1" fill="#ffa1ac" d="M 192.5,117.5 C 181.244,117.622 172.077,113.289 165,104.5C 159.305,86.8968 165.472,75.5635 183.5,70.5C 191.392,68.9443 199.059,69.7777 206.5,73C 217.725,77.8867 222.559,86.3867 221,98.5C 215.71,110.929 206.21,117.262 192.5,117.5 Z"/></g>
<g><path style="opacity:1" fill="#ffa1ac" d="M 343.5,70.5 C 358.067,67.6338 370.234,71.6338 380,82.5C 386.069,97.6093 381.569,108.443 366.5,115C 351.831,120.29 338.998,117.457 328,106.5C 321.263,96.409 322.097,87.0757 330.5,78.5C 334.429,75.0424 338.762,72.3757 343.5,70.5 Z"/></g>
<g><path style="opacity:1" fill="#faca6f" d="M 101.5,143.5 C 94.8204,142.276 88.1538,142.276 81.5,143.5C 79.2755,138.891 75.6088,137.391 70.5,139C 60.1156,143.189 51.1156,149.355 43.5,157.5C 41.2366,152.71 39.5699,147.71 38.5,142.5C 61.4654,120.67 88.132,114.837 118.5,125C 135.915,131.413 149.415,142.58 159,158.5C 160.504,162.039 160.837,165.705 160,169.5C 158.027,175.449 155.027,180.783 151,185.5C 147.754,162.238 134.92,146.738 112.5,139C 107.438,137.393 103.772,138.893 101.5,143.5 Z"/></g>
<g><path style="opacity:1" fill="#f9af55" d="M 38.5,142.5 C 39.5699,147.71 41.2366,152.71 43.5,157.5C 26.3444,181.715 25.1777,206.715 40,232.5C 43.2012,236.036 46.7012,239.203 50.5,242C 35.0092,247.005 24.8426,241.839 20,226.5C 8.52309,194.425 14.6898,166.425 38.5,142.5 Z"/></g>
<g><path style="opacity:1" fill="#e0966b" d="M 101.5,143.5 C 101.346,147.025 102.679,149.859 105.5,152C 117.235,155.943 126.401,163.109 133,173.5C 135.945,181.354 136.278,189.354 134,197.5C 129.428,190.871 124.262,184.704 118.5,179C 99.0418,167.934 82.0418,170.768 67.5,187.5C 62.4721,182.14 57.4721,176.807 52.5,171.5C 58.9754,162.206 67.642,155.706 78.5,152C 80.9305,149.695 81.9305,146.862 81.5,143.5C 88.1538,142.276 94.8204,142.276 101.5,143.5 Z"/></g>
<g><path style="opacity:1" fill="#db8755" d="M 52.5,171.5 C 57.4721,176.807 62.4721,182.14 67.5,187.5C 62.8228,195.911 61.3228,204.911 63,214.5C 65.224,220.615 67.724,226.615 70.5,232.5C 58.1193,231.648 50.2859,224.982 47,212.5C 42.3255,197.883 44.1588,184.216 52.5,171.5 Z"/></g>
<g><path style="opacity:1" fill="#000000" d="M 232.5,186.5 C 277.501,186.333 322.501,186.5 367.5,187C 372.453,189.64 373.62,193.473 371,198.5C 369.829,199.893 368.329,200.727 366.5,201C 321.833,201.667 277.167,201.667 232.5,201C 225.868,196.086 225.868,191.253 232.5,186.5 Z"/></g>
<g><path style="opacity:1" fill="#fccb6f" d="M 124.5,210.5 C 108.829,208.831 94.1624,204.165 80.5,196.5C 85.9951,188.096 93.6617,185.263 103.5,188C 107.758,189.384 111.258,191.884 114,195.5C 117.51,200.529 121.01,205.529 124.5,210.5 Z"/></g>
<g><path style="opacity:1" fill="#0d0d0b" d="M 194.5,186.5 C 204.842,186.696 207.509,191.196 202.5,200C 193.894,202.732 190.061,199.566 191,190.5C 192.376,189.295 193.542,187.962 194.5,186.5 Z"/></g>
<g><path style="opacity:1" fill="#fcb156" d="M 80.5,196.5 C 94.1624,204.165 108.829,208.831 124.5,210.5C 132.224,220.925 139.724,231.592 147,242.5C 148.219,247.898 146.719,252.398 142.5,256C 133.629,261.268 124.629,266.268 115.5,271C 109.123,272.227 104.29,270.061 101,264.5C 93.941,248.048 86.6077,231.715 79,215.5C 77.5822,210.572 77.2489,205.572 78,200.5C 78.6082,198.934 79.4415,197.6 80.5,196.5 Z"/></g>
<g><path style="opacity:1" fill="#000000" d="M 235.5,226.5 C 279.501,226.333 323.501,226.5 367.5,227C 368.931,227.465 370.097,228.299 371,229.5C 373.411,234.942 371.911,238.775 366.5,241C 326.168,241.5 285.835,241.667 245.5,241.5C 241.154,241.666 236.821,241.499 232.5,241C 231.069,240.535 229.903,239.701 229,238.5C 225.754,231.578 227.92,227.578 235.5,226.5 Z"/></g>
<g><path style="opacity:1" fill="#0d0d0b" d="M 194.5,226.5 C 204.842,226.696 207.509,231.196 202.5,240C 193.894,242.732 190.061,239.566 191,230.5C 192.376,229.295 193.542,227.962 194.5,226.5 Z"/></g>
<g><path style="opacity:1" fill="#000000" d="M 262.5,266.5 C 297.502,266.333 332.502,266.5 367.5,267C 368.931,267.465 370.097,268.299 371,269.5C 373.411,274.942 371.911,278.775 366.5,281C 336.168,281.5 305.835,281.667 275.5,281.5C 261.163,281.667 246.829,281.5 232.5,281C 231.069,280.535 229.903,279.701 229,278.5C 226.207,273.386 227.374,269.553 232.5,267C 242.494,266.5 252.494,266.334 262.5,266.5 Z"/></g>
<g><path style="opacity:1" fill="#0d0d0b" d="M 194.5,266.5 C 204.842,266.696 207.509,271.196 202.5,280C 193.894,282.732 190.061,279.566 191,270.5C 192.376,269.295 193.542,267.962 194.5,266.5 Z"/></g>
<g><path style="opacity:1" fill="#000000" d="M 298.5,306.5 C 322.257,306.02 345.924,306.52 369.5,308C 371.152,309.47 372.152,311.303 372.5,313.5C 372.496,317.664 370.496,320.164 366.5,321C 349.837,321.5 333.17,321.667 316.5,321.5C 287.745,321.983 259.078,321.483 230.5,320C 225.981,314.785 226.647,310.451 232.5,307C 254.497,306.5 276.497,306.333 298.5,306.5 Z"/></g>
<g><path style="opacity:1" fill="#0d0d0b" d="M 194.5,306.5 C 204.842,306.696 207.509,311.196 202.5,320C 193.894,322.732 190.061,319.566 191,310.5C 192.376,309.295 193.542,307.962 194.5,306.5 Z"/></g>
<g><path style="opacity:1" fill="#8ade9d" d="M 105.5,419.5 C 99.8991,415.69 94.2324,411.856 88.5,408C 85.9638,405.295 83.2971,402.795 80.5,400.5C 88.7977,391.702 97.2977,383.035 106,374.5C 106.781,373.271 107.281,371.938 107.5,370.5C 105.789,363.814 101.789,361.647 95.5,364C 87.2983,372.369 78.965,380.536 70.5,388.5C 62.5981,373.882 59.2647,358.215 60.5,341.5C 62.9262,343.218 65.5929,343.718 68.5,343C 92.6499,324.973 119.483,318.14 149,322.5C 149.667,329.833 149.667,337.167 149,344.5C 146.263,376.646 131.763,401.646 105.5,419.5 Z"/></g>
<g><path style="opacity:0.995" fill="#71d689" d="M 59.5,341.5 C 59.8333,341.5 60.1667,341.5 60.5,341.5C 59.2647,358.215 62.5981,373.882 70.5,388.5C 58.8687,400.632 47.0353,412.632 35,424.5C 34.106,410.425 36.106,396.759 41,383.5C 44.3109,376.38 47.4776,369.213 50.5,362C 49.7102,359.718 48.7102,357.552 47.5,355.5C 50.383,349.945 54.383,345.278 59.5,341.5 Z"/></g>
<g><path style="opacity:1" fill="#f85a6c" d="M 300.5,478.5 C 301.552,478.351 302.552,478.517 303.5,479C 306.865,482.657 310.532,485.824 314.5,488.5C 272.533,504.603 236.366,495.936 206,462.5C 190.639,442.077 183.972,419.077 186,393.5C 188.628,386.208 193.794,383.041 201.5,384C 196.613,414.781 205.279,441.114 227.5,463C 249.17,480.269 273.503,485.436 300.5,478.5 Z"/></g>
<g><path style="opacity:1" fill="#fb8896" d="M 277.5,412.5 C 277.163,421.281 277.996,429.947 280,438.5C 282.677,447.517 286.177,456.184 290.5,464.5C 259.057,469.528 235.89,457.861 221,429.5C 215.3,416.558 214.133,403.224 217.5,389.5C 237.599,397.195 257.599,404.862 277.5,412.5 Z"/></g>
<g><path style="opacity:1" fill="#71d689" d="M 80.5,400.5 C 83.2971,402.795 85.9638,405.295 88.5,408C 94.2324,411.856 99.8991,415.69 105.5,419.5C 87.0118,430.496 67.0118,435.662 45.5,435C 57.0349,423.298 68.7015,411.798 80.5,400.5 Z"/></g>
<g><path style="opacity:1" fill="#0e0708" d="M 239.5,409.5 C 246.319,409.483 249.486,412.817 249,419.5C 244.748,425.653 240.081,425.986 235,420.5C 233.393,415.438 234.893,411.772 239.5,409.5 Z"/></g>
<g><path style="opacity:1" fill="#fb9ea9" d="M 277.5,412.5 C 296.369,418.568 315.035,425.234 333.5,432.5C 324.289,450.044 309.955,460.711 290.5,464.5C 286.177,456.184 282.677,447.517 280,438.5C 277.996,429.947 277.163,421.281 277.5,412.5 Z"/></g>
<g><path style="opacity:1" fill="#070404" d="M 293.5,430.5 C 303.745,429.57 306.745,433.736 302.5,443C 293.249,446.416 289.415,443.25 291,433.5C 292.045,432.627 292.878,431.627 293.5,430.5 Z"/></g>
<g><path style="opacity:1" fill="#0d0707" d="M 262.5,432.5 C 269.319,432.483 272.486,435.817 272,442.5C 267.748,448.653 263.081,448.986 258,443.5C 256.776,438.626 258.276,434.959 262.5,432.5 Z"/></g>
<g><path style="opacity:1" fill="#fa6b7d" d="M 314.5,488.5 C 310.532,485.824 306.865,482.657 303.5,479C 302.552,478.517 301.552,478.351 300.5,478.5C 321.979,471.362 337.979,457.695 348.5,437.5C 357.377,442.784 358.877,449.784 353,458.5C 342.954,472.251 330.12,482.251 314.5,488.5 Z"/></g>
</svg>
